G75*
%MOIN*%
%OFA0B0*%
%FSLAX25Y25*%
%IPPOS*%
%LPD*%
%AMOC8*
5,1,8,0,0,1.08239X$1,22.5*
%
%ADD10C,0.00000*%
%ADD11C,0.00600*%
%ADD12C,0.00500*%
%ADD13C,0.00400*%
%ADD14R,0.02000X0.02000*%
D10*
X0001000Y0001000D02*
X0001000Y0224701D01*
X0255921Y0224701D01*
X0255921Y0001000D01*
X0001000Y0001000D01*
X0064701Y0021000D02*
X0064703Y0021158D01*
X0064709Y0021316D01*
X0064719Y0021474D01*
X0064733Y0021632D01*
X0064751Y0021789D01*
X0064772Y0021946D01*
X0064798Y0022102D01*
X0064828Y0022258D01*
X0064861Y0022413D01*
X0064899Y0022566D01*
X0064940Y0022719D01*
X0064985Y0022871D01*
X0065034Y0023022D01*
X0065087Y0023171D01*
X0065143Y0023319D01*
X0065203Y0023465D01*
X0065267Y0023610D01*
X0065335Y0023753D01*
X0065406Y0023895D01*
X0065480Y0024035D01*
X0065558Y0024172D01*
X0065640Y0024308D01*
X0065724Y0024442D01*
X0065813Y0024573D01*
X0065904Y0024702D01*
X0065999Y0024829D01*
X0066096Y0024954D01*
X0066197Y0025076D01*
X0066301Y0025195D01*
X0066408Y0025312D01*
X0066518Y0025426D01*
X0066631Y0025537D01*
X0066746Y0025646D01*
X0066864Y0025751D01*
X0066985Y0025853D01*
X0067108Y0025953D01*
X0067234Y0026049D01*
X0067362Y0026142D01*
X0067492Y0026232D01*
X0067625Y0026318D01*
X0067760Y0026402D01*
X0067896Y0026481D01*
X0068035Y0026558D01*
X0068176Y0026630D01*
X0068318Y0026700D01*
X0068462Y0026765D01*
X0068608Y0026827D01*
X0068755Y0026885D01*
X0068904Y0026940D01*
X0069054Y0026991D01*
X0069205Y0027038D01*
X0069357Y0027081D01*
X0069510Y0027120D01*
X0069665Y0027156D01*
X0069820Y0027187D01*
X0069976Y0027215D01*
X0070132Y0027239D01*
X0070289Y0027259D01*
X0070447Y0027275D01*
X0070604Y0027287D01*
X0070763Y0027295D01*
X0070921Y0027299D01*
X0071079Y0027299D01*
X0071237Y0027295D01*
X0071396Y0027287D01*
X0071553Y0027275D01*
X0071711Y0027259D01*
X0071868Y0027239D01*
X0072024Y0027215D01*
X0072180Y0027187D01*
X0072335Y0027156D01*
X0072490Y0027120D01*
X0072643Y0027081D01*
X0072795Y0027038D01*
X0072946Y0026991D01*
X0073096Y0026940D01*
X0073245Y0026885D01*
X0073392Y0026827D01*
X0073538Y0026765D01*
X0073682Y0026700D01*
X0073824Y0026630D01*
X0073965Y0026558D01*
X0074104Y0026481D01*
X0074240Y0026402D01*
X0074375Y0026318D01*
X0074508Y0026232D01*
X0074638Y0026142D01*
X0074766Y0026049D01*
X0074892Y0025953D01*
X0075015Y0025853D01*
X0075136Y0025751D01*
X0075254Y0025646D01*
X0075369Y0025537D01*
X0075482Y0025426D01*
X0075592Y0025312D01*
X0075699Y0025195D01*
X0075803Y0025076D01*
X0075904Y0024954D01*
X0076001Y0024829D01*
X0076096Y0024702D01*
X0076187Y0024573D01*
X0076276Y0024442D01*
X0076360Y0024308D01*
X0076442Y0024172D01*
X0076520Y0024035D01*
X0076594Y0023895D01*
X0076665Y0023753D01*
X0076733Y0023610D01*
X0076797Y0023465D01*
X0076857Y0023319D01*
X0076913Y0023171D01*
X0076966Y0023022D01*
X0077015Y0022871D01*
X0077060Y0022719D01*
X0077101Y0022566D01*
X0077139Y0022413D01*
X0077172Y0022258D01*
X0077202Y0022102D01*
X0077228Y0021946D01*
X0077249Y0021789D01*
X0077267Y0021632D01*
X0077281Y0021474D01*
X0077291Y0021316D01*
X0077297Y0021158D01*
X0077299Y0021000D01*
X0077297Y0020842D01*
X0077291Y0020684D01*
X0077281Y0020526D01*
X0077267Y0020368D01*
X0077249Y0020211D01*
X0077228Y0020054D01*
X0077202Y0019898D01*
X0077172Y0019742D01*
X0077139Y0019587D01*
X0077101Y0019434D01*
X0077060Y0019281D01*
X0077015Y0019129D01*
X0076966Y0018978D01*
X0076913Y0018829D01*
X0076857Y0018681D01*
X0076797Y0018535D01*
X0076733Y0018390D01*
X0076665Y0018247D01*
X0076594Y0018105D01*
X0076520Y0017965D01*
X0076442Y0017828D01*
X0076360Y0017692D01*
X0076276Y0017558D01*
X0076187Y0017427D01*
X0076096Y0017298D01*
X0076001Y0017171D01*
X0075904Y0017046D01*
X0075803Y0016924D01*
X0075699Y0016805D01*
X0075592Y0016688D01*
X0075482Y0016574D01*
X0075369Y0016463D01*
X0075254Y0016354D01*
X0075136Y0016249D01*
X0075015Y0016147D01*
X0074892Y0016047D01*
X0074766Y0015951D01*
X0074638Y0015858D01*
X0074508Y0015768D01*
X0074375Y0015682D01*
X0074240Y0015598D01*
X0074104Y0015519D01*
X0073965Y0015442D01*
X0073824Y0015370D01*
X0073682Y0015300D01*
X0073538Y0015235D01*
X0073392Y0015173D01*
X0073245Y0015115D01*
X0073096Y0015060D01*
X0072946Y0015009D01*
X0072795Y0014962D01*
X0072643Y0014919D01*
X0072490Y0014880D01*
X0072335Y0014844D01*
X0072180Y0014813D01*
X0072024Y0014785D01*
X0071868Y0014761D01*
X0071711Y0014741D01*
X0071553Y0014725D01*
X0071396Y0014713D01*
X0071237Y0014705D01*
X0071079Y0014701D01*
X0070921Y0014701D01*
X0070763Y0014705D01*
X0070604Y0014713D01*
X0070447Y0014725D01*
X0070289Y0014741D01*
X0070132Y0014761D01*
X0069976Y0014785D01*
X0069820Y0014813D01*
X0069665Y0014844D01*
X0069510Y0014880D01*
X0069357Y0014919D01*
X0069205Y0014962D01*
X0069054Y0015009D01*
X0068904Y0015060D01*
X0068755Y0015115D01*
X0068608Y0015173D01*
X0068462Y0015235D01*
X0068318Y0015300D01*
X0068176Y0015370D01*
X0068035Y0015442D01*
X0067896Y0015519D01*
X0067760Y0015598D01*
X0067625Y0015682D01*
X0067492Y0015768D01*
X0067362Y0015858D01*
X0067234Y0015951D01*
X0067108Y0016047D01*
X0066985Y0016147D01*
X0066864Y0016249D01*
X0066746Y0016354D01*
X0066631Y0016463D01*
X0066518Y0016574D01*
X0066408Y0016688D01*
X0066301Y0016805D01*
X0066197Y0016924D01*
X0066096Y0017046D01*
X0065999Y0017171D01*
X0065904Y0017298D01*
X0065813Y0017427D01*
X0065724Y0017558D01*
X0065640Y0017692D01*
X0065558Y0017828D01*
X0065480Y0017965D01*
X0065406Y0018105D01*
X0065335Y0018247D01*
X0065267Y0018390D01*
X0065203Y0018535D01*
X0065143Y0018681D01*
X0065087Y0018829D01*
X0065034Y0018978D01*
X0064985Y0019129D01*
X0064940Y0019281D01*
X0064899Y0019434D01*
X0064861Y0019587D01*
X0064828Y0019742D01*
X0064798Y0019898D01*
X0064772Y0020054D01*
X0064751Y0020211D01*
X0064733Y0020368D01*
X0064719Y0020526D01*
X0064709Y0020684D01*
X0064703Y0020842D01*
X0064701Y0021000D01*
X0144701Y0021000D02*
X0144703Y0021158D01*
X0144709Y0021316D01*
X0144719Y0021474D01*
X0144733Y0021632D01*
X0144751Y0021789D01*
X0144772Y0021946D01*
X0144798Y0022102D01*
X0144828Y0022258D01*
X0144861Y0022413D01*
X0144899Y0022566D01*
X0144940Y0022719D01*
X0144985Y0022871D01*
X0145034Y0023022D01*
X0145087Y0023171D01*
X0145143Y0023319D01*
X0145203Y0023465D01*
X0145267Y0023610D01*
X0145335Y0023753D01*
X0145406Y0023895D01*
X0145480Y0024035D01*
X0145558Y0024172D01*
X0145640Y0024308D01*
X0145724Y0024442D01*
X0145813Y0024573D01*
X0145904Y0024702D01*
X0145999Y0024829D01*
X0146096Y0024954D01*
X0146197Y0025076D01*
X0146301Y0025195D01*
X0146408Y0025312D01*
X0146518Y0025426D01*
X0146631Y0025537D01*
X0146746Y0025646D01*
X0146864Y0025751D01*
X0146985Y0025853D01*
X0147108Y0025953D01*
X0147234Y0026049D01*
X0147362Y0026142D01*
X0147492Y0026232D01*
X0147625Y0026318D01*
X0147760Y0026402D01*
X0147896Y0026481D01*
X0148035Y0026558D01*
X0148176Y0026630D01*
X0148318Y0026700D01*
X0148462Y0026765D01*
X0148608Y0026827D01*
X0148755Y0026885D01*
X0148904Y0026940D01*
X0149054Y0026991D01*
X0149205Y0027038D01*
X0149357Y0027081D01*
X0149510Y0027120D01*
X0149665Y0027156D01*
X0149820Y0027187D01*
X0149976Y0027215D01*
X0150132Y0027239D01*
X0150289Y0027259D01*
X0150447Y0027275D01*
X0150604Y0027287D01*
X0150763Y0027295D01*
X0150921Y0027299D01*
X0151079Y0027299D01*
X0151237Y0027295D01*
X0151396Y0027287D01*
X0151553Y0027275D01*
X0151711Y0027259D01*
X0151868Y0027239D01*
X0152024Y0027215D01*
X0152180Y0027187D01*
X0152335Y0027156D01*
X0152490Y0027120D01*
X0152643Y0027081D01*
X0152795Y0027038D01*
X0152946Y0026991D01*
X0153096Y0026940D01*
X0153245Y0026885D01*
X0153392Y0026827D01*
X0153538Y0026765D01*
X0153682Y0026700D01*
X0153824Y0026630D01*
X0153965Y0026558D01*
X0154104Y0026481D01*
X0154240Y0026402D01*
X0154375Y0026318D01*
X0154508Y0026232D01*
X0154638Y0026142D01*
X0154766Y0026049D01*
X0154892Y0025953D01*
X0155015Y0025853D01*
X0155136Y0025751D01*
X0155254Y0025646D01*
X0155369Y0025537D01*
X0155482Y0025426D01*
X0155592Y0025312D01*
X0155699Y0025195D01*
X0155803Y0025076D01*
X0155904Y0024954D01*
X0156001Y0024829D01*
X0156096Y0024702D01*
X0156187Y0024573D01*
X0156276Y0024442D01*
X0156360Y0024308D01*
X0156442Y0024172D01*
X0156520Y0024035D01*
X0156594Y0023895D01*
X0156665Y0023753D01*
X0156733Y0023610D01*
X0156797Y0023465D01*
X0156857Y0023319D01*
X0156913Y0023171D01*
X0156966Y0023022D01*
X0157015Y0022871D01*
X0157060Y0022719D01*
X0157101Y0022566D01*
X0157139Y0022413D01*
X0157172Y0022258D01*
X0157202Y0022102D01*
X0157228Y0021946D01*
X0157249Y0021789D01*
X0157267Y0021632D01*
X0157281Y0021474D01*
X0157291Y0021316D01*
X0157297Y0021158D01*
X0157299Y0021000D01*
X0157297Y0020842D01*
X0157291Y0020684D01*
X0157281Y0020526D01*
X0157267Y0020368D01*
X0157249Y0020211D01*
X0157228Y0020054D01*
X0157202Y0019898D01*
X0157172Y0019742D01*
X0157139Y0019587D01*
X0157101Y0019434D01*
X0157060Y0019281D01*
X0157015Y0019129D01*
X0156966Y0018978D01*
X0156913Y0018829D01*
X0156857Y0018681D01*
X0156797Y0018535D01*
X0156733Y0018390D01*
X0156665Y0018247D01*
X0156594Y0018105D01*
X0156520Y0017965D01*
X0156442Y0017828D01*
X0156360Y0017692D01*
X0156276Y0017558D01*
X0156187Y0017427D01*
X0156096Y0017298D01*
X0156001Y0017171D01*
X0155904Y0017046D01*
X0155803Y0016924D01*
X0155699Y0016805D01*
X0155592Y0016688D01*
X0155482Y0016574D01*
X0155369Y0016463D01*
X0155254Y0016354D01*
X0155136Y0016249D01*
X0155015Y0016147D01*
X0154892Y0016047D01*
X0154766Y0015951D01*
X0154638Y0015858D01*
X0154508Y0015768D01*
X0154375Y0015682D01*
X0154240Y0015598D01*
X0154104Y0015519D01*
X0153965Y0015442D01*
X0153824Y0015370D01*
X0153682Y0015300D01*
X0153538Y0015235D01*
X0153392Y0015173D01*
X0153245Y0015115D01*
X0153096Y0015060D01*
X0152946Y0015009D01*
X0152795Y0014962D01*
X0152643Y0014919D01*
X0152490Y0014880D01*
X0152335Y0014844D01*
X0152180Y0014813D01*
X0152024Y0014785D01*
X0151868Y0014761D01*
X0151711Y0014741D01*
X0151553Y0014725D01*
X0151396Y0014713D01*
X0151237Y0014705D01*
X0151079Y0014701D01*
X0150921Y0014701D01*
X0150763Y0014705D01*
X0150604Y0014713D01*
X0150447Y0014725D01*
X0150289Y0014741D01*
X0150132Y0014761D01*
X0149976Y0014785D01*
X0149820Y0014813D01*
X0149665Y0014844D01*
X0149510Y0014880D01*
X0149357Y0014919D01*
X0149205Y0014962D01*
X0149054Y0015009D01*
X0148904Y0015060D01*
X0148755Y0015115D01*
X0148608Y0015173D01*
X0148462Y0015235D01*
X0148318Y0015300D01*
X0148176Y0015370D01*
X0148035Y0015442D01*
X0147896Y0015519D01*
X0147760Y0015598D01*
X0147625Y0015682D01*
X0147492Y0015768D01*
X0147362Y0015858D01*
X0147234Y0015951D01*
X0147108Y0016047D01*
X0146985Y0016147D01*
X0146864Y0016249D01*
X0146746Y0016354D01*
X0146631Y0016463D01*
X0146518Y0016574D01*
X0146408Y0016688D01*
X0146301Y0016805D01*
X0146197Y0016924D01*
X0146096Y0017046D01*
X0145999Y0017171D01*
X0145904Y0017298D01*
X0145813Y0017427D01*
X0145724Y0017558D01*
X0145640Y0017692D01*
X0145558Y0017828D01*
X0145480Y0017965D01*
X0145406Y0018105D01*
X0145335Y0018247D01*
X0145267Y0018390D01*
X0145203Y0018535D01*
X0145143Y0018681D01*
X0145087Y0018829D01*
X0145034Y0018978D01*
X0144985Y0019129D01*
X0144940Y0019281D01*
X0144899Y0019434D01*
X0144861Y0019587D01*
X0144828Y0019742D01*
X0144798Y0019898D01*
X0144772Y0020054D01*
X0144751Y0020211D01*
X0144733Y0020368D01*
X0144719Y0020526D01*
X0144709Y0020684D01*
X0144703Y0020842D01*
X0144701Y0021000D01*
X0144701Y0191000D02*
X0144703Y0191158D01*
X0144709Y0191316D01*
X0144719Y0191474D01*
X0144733Y0191632D01*
X0144751Y0191789D01*
X0144772Y0191946D01*
X0144798Y0192102D01*
X0144828Y0192258D01*
X0144861Y0192413D01*
X0144899Y0192566D01*
X0144940Y0192719D01*
X0144985Y0192871D01*
X0145034Y0193022D01*
X0145087Y0193171D01*
X0145143Y0193319D01*
X0145203Y0193465D01*
X0145267Y0193610D01*
X0145335Y0193753D01*
X0145406Y0193895D01*
X0145480Y0194035D01*
X0145558Y0194172D01*
X0145640Y0194308D01*
X0145724Y0194442D01*
X0145813Y0194573D01*
X0145904Y0194702D01*
X0145999Y0194829D01*
X0146096Y0194954D01*
X0146197Y0195076D01*
X0146301Y0195195D01*
X0146408Y0195312D01*
X0146518Y0195426D01*
X0146631Y0195537D01*
X0146746Y0195646D01*
X0146864Y0195751D01*
X0146985Y0195853D01*
X0147108Y0195953D01*
X0147234Y0196049D01*
X0147362Y0196142D01*
X0147492Y0196232D01*
X0147625Y0196318D01*
X0147760Y0196402D01*
X0147896Y0196481D01*
X0148035Y0196558D01*
X0148176Y0196630D01*
X0148318Y0196700D01*
X0148462Y0196765D01*
X0148608Y0196827D01*
X0148755Y0196885D01*
X0148904Y0196940D01*
X0149054Y0196991D01*
X0149205Y0197038D01*
X0149357Y0197081D01*
X0149510Y0197120D01*
X0149665Y0197156D01*
X0149820Y0197187D01*
X0149976Y0197215D01*
X0150132Y0197239D01*
X0150289Y0197259D01*
X0150447Y0197275D01*
X0150604Y0197287D01*
X0150763Y0197295D01*
X0150921Y0197299D01*
X0151079Y0197299D01*
X0151237Y0197295D01*
X0151396Y0197287D01*
X0151553Y0197275D01*
X0151711Y0197259D01*
X0151868Y0197239D01*
X0152024Y0197215D01*
X0152180Y0197187D01*
X0152335Y0197156D01*
X0152490Y0197120D01*
X0152643Y0197081D01*
X0152795Y0197038D01*
X0152946Y0196991D01*
X0153096Y0196940D01*
X0153245Y0196885D01*
X0153392Y0196827D01*
X0153538Y0196765D01*
X0153682Y0196700D01*
X0153824Y0196630D01*
X0153965Y0196558D01*
X0154104Y0196481D01*
X0154240Y0196402D01*
X0154375Y0196318D01*
X0154508Y0196232D01*
X0154638Y0196142D01*
X0154766Y0196049D01*
X0154892Y0195953D01*
X0155015Y0195853D01*
X0155136Y0195751D01*
X0155254Y0195646D01*
X0155369Y0195537D01*
X0155482Y0195426D01*
X0155592Y0195312D01*
X0155699Y0195195D01*
X0155803Y0195076D01*
X0155904Y0194954D01*
X0156001Y0194829D01*
X0156096Y0194702D01*
X0156187Y0194573D01*
X0156276Y0194442D01*
X0156360Y0194308D01*
X0156442Y0194172D01*
X0156520Y0194035D01*
X0156594Y0193895D01*
X0156665Y0193753D01*
X0156733Y0193610D01*
X0156797Y0193465D01*
X0156857Y0193319D01*
X0156913Y0193171D01*
X0156966Y0193022D01*
X0157015Y0192871D01*
X0157060Y0192719D01*
X0157101Y0192566D01*
X0157139Y0192413D01*
X0157172Y0192258D01*
X0157202Y0192102D01*
X0157228Y0191946D01*
X0157249Y0191789D01*
X0157267Y0191632D01*
X0157281Y0191474D01*
X0157291Y0191316D01*
X0157297Y0191158D01*
X0157299Y0191000D01*
X0157297Y0190842D01*
X0157291Y0190684D01*
X0157281Y0190526D01*
X0157267Y0190368D01*
X0157249Y0190211D01*
X0157228Y0190054D01*
X0157202Y0189898D01*
X0157172Y0189742D01*
X0157139Y0189587D01*
X0157101Y0189434D01*
X0157060Y0189281D01*
X0157015Y0189129D01*
X0156966Y0188978D01*
X0156913Y0188829D01*
X0156857Y0188681D01*
X0156797Y0188535D01*
X0156733Y0188390D01*
X0156665Y0188247D01*
X0156594Y0188105D01*
X0156520Y0187965D01*
X0156442Y0187828D01*
X0156360Y0187692D01*
X0156276Y0187558D01*
X0156187Y0187427D01*
X0156096Y0187298D01*
X0156001Y0187171D01*
X0155904Y0187046D01*
X0155803Y0186924D01*
X0155699Y0186805D01*
X0155592Y0186688D01*
X0155482Y0186574D01*
X0155369Y0186463D01*
X0155254Y0186354D01*
X0155136Y0186249D01*
X0155015Y0186147D01*
X0154892Y0186047D01*
X0154766Y0185951D01*
X0154638Y0185858D01*
X0154508Y0185768D01*
X0154375Y0185682D01*
X0154240Y0185598D01*
X0154104Y0185519D01*
X0153965Y0185442D01*
X0153824Y0185370D01*
X0153682Y0185300D01*
X0153538Y0185235D01*
X0153392Y0185173D01*
X0153245Y0185115D01*
X0153096Y0185060D01*
X0152946Y0185009D01*
X0152795Y0184962D01*
X0152643Y0184919D01*
X0152490Y0184880D01*
X0152335Y0184844D01*
X0152180Y0184813D01*
X0152024Y0184785D01*
X0151868Y0184761D01*
X0151711Y0184741D01*
X0151553Y0184725D01*
X0151396Y0184713D01*
X0151237Y0184705D01*
X0151079Y0184701D01*
X0150921Y0184701D01*
X0150763Y0184705D01*
X0150604Y0184713D01*
X0150447Y0184725D01*
X0150289Y0184741D01*
X0150132Y0184761D01*
X0149976Y0184785D01*
X0149820Y0184813D01*
X0149665Y0184844D01*
X0149510Y0184880D01*
X0149357Y0184919D01*
X0149205Y0184962D01*
X0149054Y0185009D01*
X0148904Y0185060D01*
X0148755Y0185115D01*
X0148608Y0185173D01*
X0148462Y0185235D01*
X0148318Y0185300D01*
X0148176Y0185370D01*
X0148035Y0185442D01*
X0147896Y0185519D01*
X0147760Y0185598D01*
X0147625Y0185682D01*
X0147492Y0185768D01*
X0147362Y0185858D01*
X0147234Y0185951D01*
X0147108Y0186047D01*
X0146985Y0186147D01*
X0146864Y0186249D01*
X0146746Y0186354D01*
X0146631Y0186463D01*
X0146518Y0186574D01*
X0146408Y0186688D01*
X0146301Y0186805D01*
X0146197Y0186924D01*
X0146096Y0187046D01*
X0145999Y0187171D01*
X0145904Y0187298D01*
X0145813Y0187427D01*
X0145724Y0187558D01*
X0145640Y0187692D01*
X0145558Y0187828D01*
X0145480Y0187965D01*
X0145406Y0188105D01*
X0145335Y0188247D01*
X0145267Y0188390D01*
X0145203Y0188535D01*
X0145143Y0188681D01*
X0145087Y0188829D01*
X0145034Y0188978D01*
X0144985Y0189129D01*
X0144940Y0189281D01*
X0144899Y0189434D01*
X0144861Y0189587D01*
X0144828Y0189742D01*
X0144798Y0189898D01*
X0144772Y0190054D01*
X0144751Y0190211D01*
X0144733Y0190368D01*
X0144719Y0190526D01*
X0144709Y0190684D01*
X0144703Y0190842D01*
X0144701Y0191000D01*
X0064701Y0191000D02*
X0064703Y0191158D01*
X0064709Y0191316D01*
X0064719Y0191474D01*
X0064733Y0191632D01*
X0064751Y0191789D01*
X0064772Y0191946D01*
X0064798Y0192102D01*
X0064828Y0192258D01*
X0064861Y0192413D01*
X0064899Y0192566D01*
X0064940Y0192719D01*
X0064985Y0192871D01*
X0065034Y0193022D01*
X0065087Y0193171D01*
X0065143Y0193319D01*
X0065203Y0193465D01*
X0065267Y0193610D01*
X0065335Y0193753D01*
X0065406Y0193895D01*
X0065480Y0194035D01*
X0065558Y0194172D01*
X0065640Y0194308D01*
X0065724Y0194442D01*
X0065813Y0194573D01*
X0065904Y0194702D01*
X0065999Y0194829D01*
X0066096Y0194954D01*
X0066197Y0195076D01*
X0066301Y0195195D01*
X0066408Y0195312D01*
X0066518Y0195426D01*
X0066631Y0195537D01*
X0066746Y0195646D01*
X0066864Y0195751D01*
X0066985Y0195853D01*
X0067108Y0195953D01*
X0067234Y0196049D01*
X0067362Y0196142D01*
X0067492Y0196232D01*
X0067625Y0196318D01*
X0067760Y0196402D01*
X0067896Y0196481D01*
X0068035Y0196558D01*
X0068176Y0196630D01*
X0068318Y0196700D01*
X0068462Y0196765D01*
X0068608Y0196827D01*
X0068755Y0196885D01*
X0068904Y0196940D01*
X0069054Y0196991D01*
X0069205Y0197038D01*
X0069357Y0197081D01*
X0069510Y0197120D01*
X0069665Y0197156D01*
X0069820Y0197187D01*
X0069976Y0197215D01*
X0070132Y0197239D01*
X0070289Y0197259D01*
X0070447Y0197275D01*
X0070604Y0197287D01*
X0070763Y0197295D01*
X0070921Y0197299D01*
X0071079Y0197299D01*
X0071237Y0197295D01*
X0071396Y0197287D01*
X0071553Y0197275D01*
X0071711Y0197259D01*
X0071868Y0197239D01*
X0072024Y0197215D01*
X0072180Y0197187D01*
X0072335Y0197156D01*
X0072490Y0197120D01*
X0072643Y0197081D01*
X0072795Y0197038D01*
X0072946Y0196991D01*
X0073096Y0196940D01*
X0073245Y0196885D01*
X0073392Y0196827D01*
X0073538Y0196765D01*
X0073682Y0196700D01*
X0073824Y0196630D01*
X0073965Y0196558D01*
X0074104Y0196481D01*
X0074240Y0196402D01*
X0074375Y0196318D01*
X0074508Y0196232D01*
X0074638Y0196142D01*
X0074766Y0196049D01*
X0074892Y0195953D01*
X0075015Y0195853D01*
X0075136Y0195751D01*
X0075254Y0195646D01*
X0075369Y0195537D01*
X0075482Y0195426D01*
X0075592Y0195312D01*
X0075699Y0195195D01*
X0075803Y0195076D01*
X0075904Y0194954D01*
X0076001Y0194829D01*
X0076096Y0194702D01*
X0076187Y0194573D01*
X0076276Y0194442D01*
X0076360Y0194308D01*
X0076442Y0194172D01*
X0076520Y0194035D01*
X0076594Y0193895D01*
X0076665Y0193753D01*
X0076733Y0193610D01*
X0076797Y0193465D01*
X0076857Y0193319D01*
X0076913Y0193171D01*
X0076966Y0193022D01*
X0077015Y0192871D01*
X0077060Y0192719D01*
X0077101Y0192566D01*
X0077139Y0192413D01*
X0077172Y0192258D01*
X0077202Y0192102D01*
X0077228Y0191946D01*
X0077249Y0191789D01*
X0077267Y0191632D01*
X0077281Y0191474D01*
X0077291Y0191316D01*
X0077297Y0191158D01*
X0077299Y0191000D01*
X0077297Y0190842D01*
X0077291Y0190684D01*
X0077281Y0190526D01*
X0077267Y0190368D01*
X0077249Y0190211D01*
X0077228Y0190054D01*
X0077202Y0189898D01*
X0077172Y0189742D01*
X0077139Y0189587D01*
X0077101Y0189434D01*
X0077060Y0189281D01*
X0077015Y0189129D01*
X0076966Y0188978D01*
X0076913Y0188829D01*
X0076857Y0188681D01*
X0076797Y0188535D01*
X0076733Y0188390D01*
X0076665Y0188247D01*
X0076594Y0188105D01*
X0076520Y0187965D01*
X0076442Y0187828D01*
X0076360Y0187692D01*
X0076276Y0187558D01*
X0076187Y0187427D01*
X0076096Y0187298D01*
X0076001Y0187171D01*
X0075904Y0187046D01*
X0075803Y0186924D01*
X0075699Y0186805D01*
X0075592Y0186688D01*
X0075482Y0186574D01*
X0075369Y0186463D01*
X0075254Y0186354D01*
X0075136Y0186249D01*
X0075015Y0186147D01*
X0074892Y0186047D01*
X0074766Y0185951D01*
X0074638Y0185858D01*
X0074508Y0185768D01*
X0074375Y0185682D01*
X0074240Y0185598D01*
X0074104Y0185519D01*
X0073965Y0185442D01*
X0073824Y0185370D01*
X0073682Y0185300D01*
X0073538Y0185235D01*
X0073392Y0185173D01*
X0073245Y0185115D01*
X0073096Y0185060D01*
X0072946Y0185009D01*
X0072795Y0184962D01*
X0072643Y0184919D01*
X0072490Y0184880D01*
X0072335Y0184844D01*
X0072180Y0184813D01*
X0072024Y0184785D01*
X0071868Y0184761D01*
X0071711Y0184741D01*
X0071553Y0184725D01*
X0071396Y0184713D01*
X0071237Y0184705D01*
X0071079Y0184701D01*
X0070921Y0184701D01*
X0070763Y0184705D01*
X0070604Y0184713D01*
X0070447Y0184725D01*
X0070289Y0184741D01*
X0070132Y0184761D01*
X0069976Y0184785D01*
X0069820Y0184813D01*
X0069665Y0184844D01*
X0069510Y0184880D01*
X0069357Y0184919D01*
X0069205Y0184962D01*
X0069054Y0185009D01*
X0068904Y0185060D01*
X0068755Y0185115D01*
X0068608Y0185173D01*
X0068462Y0185235D01*
X0068318Y0185300D01*
X0068176Y0185370D01*
X0068035Y0185442D01*
X0067896Y0185519D01*
X0067760Y0185598D01*
X0067625Y0185682D01*
X0067492Y0185768D01*
X0067362Y0185858D01*
X0067234Y0185951D01*
X0067108Y0186047D01*
X0066985Y0186147D01*
X0066864Y0186249D01*
X0066746Y0186354D01*
X0066631Y0186463D01*
X0066518Y0186574D01*
X0066408Y0186688D01*
X0066301Y0186805D01*
X0066197Y0186924D01*
X0066096Y0187046D01*
X0065999Y0187171D01*
X0065904Y0187298D01*
X0065813Y0187427D01*
X0065724Y0187558D01*
X0065640Y0187692D01*
X0065558Y0187828D01*
X0065480Y0187965D01*
X0065406Y0188105D01*
X0065335Y0188247D01*
X0065267Y0188390D01*
X0065203Y0188535D01*
X0065143Y0188681D01*
X0065087Y0188829D01*
X0065034Y0188978D01*
X0064985Y0189129D01*
X0064940Y0189281D01*
X0064899Y0189434D01*
X0064861Y0189587D01*
X0064828Y0189742D01*
X0064798Y0189898D01*
X0064772Y0190054D01*
X0064751Y0190211D01*
X0064733Y0190368D01*
X0064719Y0190526D01*
X0064709Y0190684D01*
X0064703Y0190842D01*
X0064701Y0191000D01*
D11*
X0063932Y0211300D02*
X0062864Y0212368D01*
X0062864Y0214503D01*
X0063932Y0215570D01*
X0066067Y0215570D01*
X0067134Y0214503D01*
X0067134Y0213435D01*
X0062864Y0213435D01*
X0063932Y0211300D02*
X0066067Y0211300D01*
X0070377Y0211300D02*
X0070377Y0216638D01*
X0071445Y0217705D01*
X0073606Y0215570D02*
X0074674Y0215570D01*
X0074674Y0211300D01*
X0073606Y0211300D02*
X0075742Y0211300D01*
X0078971Y0212368D02*
X0080039Y0211300D01*
X0081300Y0211300D02*
X0083435Y0213435D01*
X0085570Y0211300D01*
X0085570Y0217705D01*
X0088813Y0215570D02*
X0090948Y0215570D01*
X0092016Y0214503D01*
X0092016Y0211300D01*
X0088813Y0211300D01*
X0087745Y0212368D01*
X0088813Y0213435D01*
X0092016Y0213435D01*
X0094191Y0215570D02*
X0096326Y0215570D01*
X0095259Y0216638D02*
X0095259Y0212368D01*
X0096326Y0211300D01*
X0098488Y0212368D02*
X0098488Y0214503D01*
X0099556Y0215570D01*
X0101691Y0215570D01*
X0102758Y0214503D01*
X0102758Y0213435D01*
X0098488Y0213435D01*
X0098488Y0212368D02*
X0099556Y0211300D01*
X0101691Y0211300D01*
X0104933Y0211300D02*
X0104933Y0215570D01*
X0104933Y0213435D02*
X0107069Y0215570D01*
X0108136Y0215570D01*
X0116750Y0217705D02*
X0116750Y0211300D01*
X0121021Y0211300D02*
X0121021Y0217705D01*
X0118885Y0215570D01*
X0116750Y0217705D01*
X0123196Y0214503D02*
X0123196Y0212368D01*
X0124263Y0211300D01*
X0126398Y0211300D01*
X0127466Y0213435D02*
X0123196Y0213435D01*
X0123196Y0214503D02*
X0124263Y0215570D01*
X0126398Y0215570D01*
X0127466Y0214503D01*
X0127466Y0213435D01*
X0129641Y0215570D02*
X0131776Y0215570D01*
X0130709Y0216638D02*
X0130709Y0212368D01*
X0131776Y0211300D01*
X0133938Y0212368D02*
X0133938Y0214503D01*
X0135006Y0215570D01*
X0137141Y0215570D01*
X0138209Y0214503D01*
X0138209Y0213435D01*
X0133938Y0213435D01*
X0133938Y0212368D02*
X0135006Y0211300D01*
X0137141Y0211300D01*
X0140384Y0211300D02*
X0140384Y0215570D01*
X0140384Y0213435D02*
X0142519Y0215570D01*
X0143586Y0215570D01*
X0152200Y0214503D02*
X0156471Y0214503D01*
X0154336Y0216638D02*
X0154336Y0212368D01*
X0165091Y0212368D02*
X0166159Y0211300D01*
X0168294Y0211300D01*
X0169362Y0212368D01*
X0171537Y0212368D02*
X0171537Y0214503D01*
X0172605Y0215570D01*
X0174740Y0215570D01*
X0175807Y0214503D01*
X0175807Y0212368D01*
X0174740Y0211300D01*
X0172605Y0211300D01*
X0171537Y0212368D01*
X0169362Y0216638D02*
X0168294Y0217705D01*
X0166159Y0217705D01*
X0165091Y0216638D01*
X0165091Y0212368D01*
X0177982Y0211300D02*
X0177982Y0215570D01*
X0181185Y0215570D01*
X0182253Y0214503D01*
X0182253Y0211300D01*
X0185496Y0212368D02*
X0185496Y0216638D01*
X0186563Y0215570D02*
X0184428Y0215570D01*
X0185496Y0212368D02*
X0186563Y0211300D01*
X0188725Y0212368D02*
X0189793Y0211300D01*
X0191928Y0211300D01*
X0192995Y0212368D01*
X0192995Y0214503D01*
X0191928Y0215570D01*
X0189793Y0215570D01*
X0188725Y0214503D01*
X0188725Y0212368D01*
X0195170Y0211300D02*
X0197306Y0211300D01*
X0196238Y0211300D02*
X0196238Y0217705D01*
X0195170Y0217705D01*
X0199467Y0217705D02*
X0200535Y0217705D01*
X0200535Y0211300D01*
X0199467Y0211300D02*
X0201603Y0211300D01*
X0203764Y0212368D02*
X0203764Y0214503D01*
X0204832Y0215570D01*
X0206967Y0215570D01*
X0208035Y0214503D01*
X0208035Y0213435D01*
X0203764Y0213435D01*
X0203764Y0212368D02*
X0204832Y0211300D01*
X0206967Y0211300D01*
X0210210Y0211300D02*
X0210210Y0215570D01*
X0210210Y0213435D02*
X0212345Y0215570D01*
X0213413Y0215570D01*
X0213813Y0187705D02*
X0212745Y0186638D01*
X0212745Y0182368D01*
X0213813Y0181300D01*
X0215948Y0181300D01*
X0217016Y0182368D01*
X0219191Y0181300D02*
X0222394Y0181300D01*
X0223461Y0182368D01*
X0223461Y0186638D01*
X0222394Y0187705D01*
X0219191Y0187705D01*
X0219191Y0181300D01*
X0217016Y0186638D02*
X0215948Y0187705D01*
X0213813Y0187705D01*
X0210570Y0181300D02*
X0206300Y0181300D01*
X0206300Y0187705D01*
X0081300Y0211300D02*
X0081300Y0217705D01*
X0080039Y0215570D02*
X0077903Y0215570D01*
X0078971Y0216638D02*
X0078971Y0212368D01*
X0074674Y0217705D02*
X0074674Y0218773D01*
X0071445Y0214503D02*
X0069309Y0214503D01*
X0060689Y0214503D02*
X0060689Y0211300D01*
X0060689Y0214503D02*
X0059621Y0215570D01*
X0056418Y0215570D01*
X0056418Y0211300D01*
X0054243Y0213435D02*
X0049973Y0213435D01*
X0049973Y0212368D02*
X0049973Y0214503D01*
X0051041Y0215570D01*
X0053176Y0215570D01*
X0054243Y0214503D01*
X0054243Y0213435D01*
X0053176Y0211300D02*
X0051041Y0211300D01*
X0049973Y0212368D01*
X0047798Y0212368D02*
X0046730Y0211300D01*
X0043527Y0211300D01*
X0043527Y0217705D01*
X0046730Y0217705D01*
X0047798Y0216638D01*
X0047798Y0215570D01*
X0046730Y0214503D01*
X0043527Y0214503D01*
X0046730Y0214503D02*
X0047798Y0213435D01*
X0047798Y0212368D01*
X0034907Y0212368D02*
X0033839Y0211300D01*
X0030636Y0211300D01*
X0030636Y0209165D02*
X0030636Y0215570D01*
X0033839Y0215570D01*
X0034907Y0214503D01*
X0034907Y0212368D01*
X0028461Y0213435D02*
X0025259Y0213435D01*
X0024191Y0212368D01*
X0025259Y0211300D01*
X0028461Y0211300D01*
X0028461Y0214503D01*
X0027394Y0215570D01*
X0025259Y0215570D01*
X0022016Y0214503D02*
X0022016Y0213435D01*
X0017745Y0213435D01*
X0017745Y0212368D02*
X0017745Y0214503D01*
X0018813Y0215570D01*
X0020948Y0215570D01*
X0022016Y0214503D01*
X0020948Y0211300D02*
X0018813Y0211300D01*
X0017745Y0212368D01*
X0015570Y0211300D02*
X0013435Y0213435D01*
X0014503Y0213435D02*
X0011300Y0213435D01*
X0011300Y0211300D02*
X0011300Y0217705D01*
X0014503Y0217705D01*
X0015570Y0216638D01*
X0015570Y0214503D01*
X0014503Y0213435D01*
X0016430Y0128136D02*
X0016430Y0127069D01*
X0018565Y0124933D01*
X0020700Y0124933D02*
X0016430Y0124933D01*
X0017497Y0122758D02*
X0018565Y0122758D01*
X0018565Y0118488D01*
X0019632Y0118488D02*
X0017497Y0118488D01*
X0016430Y0119556D01*
X0016430Y0121691D01*
X0017497Y0122758D01*
X0020700Y0121691D02*
X0020700Y0119556D01*
X0019632Y0118488D01*
X0020700Y0116326D02*
X0019632Y0115259D01*
X0015362Y0115259D01*
X0016430Y0116326D02*
X0016430Y0114191D01*
X0017497Y0112016D02*
X0020700Y0112016D01*
X0020700Y0108813D01*
X0019632Y0107745D01*
X0018565Y0108813D01*
X0018565Y0112016D01*
X0017497Y0112016D02*
X0016430Y0110948D01*
X0016430Y0108813D01*
X0014295Y0105570D02*
X0020700Y0105570D01*
X0018565Y0103435D01*
X0020700Y0101300D01*
X0014295Y0101300D01*
X0094295Y0047394D02*
X0094295Y0045259D01*
X0095362Y0044191D01*
X0095362Y0042016D02*
X0094295Y0040948D01*
X0094295Y0038813D01*
X0095362Y0037745D01*
X0096430Y0037745D01*
X0097497Y0038813D01*
X0097497Y0040948D01*
X0098565Y0042016D01*
X0099632Y0042016D01*
X0100700Y0040948D01*
X0100700Y0038813D01*
X0099632Y0037745D01*
X0099632Y0035570D02*
X0094295Y0035570D01*
X0094295Y0031300D02*
X0099632Y0031300D01*
X0100700Y0032368D01*
X0100700Y0034503D01*
X0099632Y0035570D01*
X0101768Y0039881D02*
X0093227Y0039881D01*
X0094295Y0047394D02*
X0095362Y0048461D01*
X0096430Y0048461D01*
X0100700Y0044191D01*
X0100700Y0048461D01*
X0045285Y0015570D02*
X0044217Y0015570D01*
X0042082Y0013435D01*
X0042082Y0011300D02*
X0042082Y0015570D01*
X0039907Y0014503D02*
X0039907Y0013435D01*
X0035636Y0013435D01*
X0035636Y0012368D02*
X0035636Y0014503D01*
X0036704Y0015570D01*
X0038839Y0015570D01*
X0039907Y0014503D01*
X0038839Y0011300D02*
X0036704Y0011300D01*
X0035636Y0012368D01*
X0033461Y0012368D02*
X0033461Y0015570D01*
X0033461Y0012368D02*
X0032394Y0011300D01*
X0031326Y0012368D01*
X0030259Y0011300D01*
X0029191Y0012368D01*
X0029191Y0015570D01*
X0027016Y0014503D02*
X0027016Y0012368D01*
X0025948Y0011300D01*
X0023813Y0011300D01*
X0022745Y0012368D01*
X0022745Y0014503D01*
X0023813Y0015570D01*
X0025948Y0015570D01*
X0027016Y0014503D01*
X0020570Y0014503D02*
X0019503Y0013435D01*
X0016300Y0013435D01*
X0016300Y0011300D02*
X0016300Y0017705D01*
X0019503Y0017705D01*
X0020570Y0016638D01*
X0020570Y0014503D01*
X0206300Y0015570D02*
X0207368Y0014503D01*
X0209503Y0014503D01*
X0210570Y0013435D01*
X0210570Y0012368D01*
X0209503Y0011300D01*
X0207368Y0011300D01*
X0206300Y0012368D01*
X0206300Y0015570D02*
X0206300Y0016638D01*
X0207368Y0017705D01*
X0209503Y0017705D01*
X0210570Y0016638D01*
X0212745Y0014503D02*
X0212745Y0012368D01*
X0213813Y0011300D01*
X0215948Y0011300D01*
X0217016Y0012368D01*
X0217016Y0014503D01*
X0215948Y0015570D01*
X0213813Y0015570D01*
X0212745Y0014503D01*
X0219191Y0017705D02*
X0220259Y0017705D01*
X0220259Y0011300D01*
X0221326Y0011300D02*
X0219191Y0011300D01*
X0223488Y0012368D02*
X0223488Y0014503D01*
X0224556Y0015570D01*
X0226691Y0015570D01*
X0227758Y0014503D01*
X0227758Y0013435D01*
X0223488Y0013435D01*
X0223488Y0012368D02*
X0224556Y0011300D01*
X0226691Y0011300D01*
X0229933Y0011300D02*
X0229933Y0015570D01*
X0233136Y0015570D01*
X0234204Y0014503D01*
X0234204Y0011300D01*
X0236379Y0012368D02*
X0236379Y0014503D01*
X0237447Y0015570D01*
X0239582Y0015570D01*
X0240649Y0014503D01*
X0240649Y0012368D01*
X0239582Y0011300D01*
X0237447Y0011300D01*
X0236379Y0012368D01*
X0242824Y0011300D02*
X0244960Y0011300D01*
X0243892Y0011300D02*
X0243892Y0015570D01*
X0242824Y0015570D01*
X0243892Y0017705D02*
X0243892Y0018773D01*
X0247121Y0014503D02*
X0248189Y0015570D01*
X0251392Y0015570D01*
X0251392Y0017705D02*
X0251392Y0011300D01*
X0248189Y0011300D01*
X0247121Y0012368D01*
X0247121Y0014503D01*
X0231000Y0026000D02*
X0231000Y0036000D01*
X0231000Y0038500D01*
X0211000Y0038500D01*
X0211000Y0036000D01*
X0231000Y0036000D01*
X0231000Y0026000D02*
X0211000Y0026000D01*
X0211000Y0036000D01*
D12*
X0196000Y0062693D02*
X0231433Y0062693D01*
X0231433Y0109937D01*
X0196000Y0109937D01*
X0196000Y0062693D01*
X0203500Y0106000D02*
X0203502Y0106099D01*
X0203508Y0106199D01*
X0203518Y0106298D01*
X0203532Y0106396D01*
X0203549Y0106494D01*
X0203571Y0106591D01*
X0203596Y0106687D01*
X0203625Y0106782D01*
X0203658Y0106876D01*
X0203695Y0106968D01*
X0203735Y0107059D01*
X0203779Y0107148D01*
X0203827Y0107236D01*
X0203878Y0107321D01*
X0203932Y0107404D01*
X0203989Y0107486D01*
X0204050Y0107564D01*
X0204114Y0107641D01*
X0204180Y0107714D01*
X0204250Y0107785D01*
X0204322Y0107853D01*
X0204397Y0107919D01*
X0204475Y0107981D01*
X0204555Y0108040D01*
X0204637Y0108096D01*
X0204721Y0108148D01*
X0204808Y0108197D01*
X0204896Y0108243D01*
X0204986Y0108285D01*
X0205078Y0108324D01*
X0205171Y0108359D01*
X0205265Y0108390D01*
X0205361Y0108417D01*
X0205458Y0108440D01*
X0205555Y0108460D01*
X0205653Y0108476D01*
X0205752Y0108488D01*
X0205851Y0108496D01*
X0205950Y0108500D01*
X0206050Y0108500D01*
X0206149Y0108496D01*
X0206248Y0108488D01*
X0206347Y0108476D01*
X0206445Y0108460D01*
X0206542Y0108440D01*
X0206639Y0108417D01*
X0206735Y0108390D01*
X0206829Y0108359D01*
X0206922Y0108324D01*
X0207014Y0108285D01*
X0207104Y0108243D01*
X0207192Y0108197D01*
X0207279Y0108148D01*
X0207363Y0108096D01*
X0207445Y0108040D01*
X0207525Y0107981D01*
X0207603Y0107919D01*
X0207678Y0107853D01*
X0207750Y0107785D01*
X0207820Y0107714D01*
X0207886Y0107641D01*
X0207950Y0107564D01*
X0208011Y0107486D01*
X0208068Y0107404D01*
X0208122Y0107321D01*
X0208173Y0107236D01*
X0208221Y0107148D01*
X0208265Y0107059D01*
X0208305Y0106968D01*
X0208342Y0106876D01*
X0208375Y0106782D01*
X0208404Y0106687D01*
X0208429Y0106591D01*
X0208451Y0106494D01*
X0208468Y0106396D01*
X0208482Y0106298D01*
X0208492Y0106199D01*
X0208498Y0106099D01*
X0208500Y0106000D01*
X0208498Y0105901D01*
X0208492Y0105801D01*
X0208482Y0105702D01*
X0208468Y0105604D01*
X0208451Y0105506D01*
X0208429Y0105409D01*
X0208404Y0105313D01*
X0208375Y0105218D01*
X0208342Y0105124D01*
X0208305Y0105032D01*
X0208265Y0104941D01*
X0208221Y0104852D01*
X0208173Y0104764D01*
X0208122Y0104679D01*
X0208068Y0104596D01*
X0208011Y0104514D01*
X0207950Y0104436D01*
X0207886Y0104359D01*
X0207820Y0104286D01*
X0207750Y0104215D01*
X0207678Y0104147D01*
X0207603Y0104081D01*
X0207525Y0104019D01*
X0207445Y0103960D01*
X0207363Y0103904D01*
X0207279Y0103852D01*
X0207192Y0103803D01*
X0207104Y0103757D01*
X0207014Y0103715D01*
X0206922Y0103676D01*
X0206829Y0103641D01*
X0206735Y0103610D01*
X0206639Y0103583D01*
X0206542Y0103560D01*
X0206445Y0103540D01*
X0206347Y0103524D01*
X0206248Y0103512D01*
X0206149Y0103504D01*
X0206050Y0103500D01*
X0205950Y0103500D01*
X0205851Y0103504D01*
X0205752Y0103512D01*
X0205653Y0103524D01*
X0205555Y0103540D01*
X0205458Y0103560D01*
X0205361Y0103583D01*
X0205265Y0103610D01*
X0205171Y0103641D01*
X0205078Y0103676D01*
X0204986Y0103715D01*
X0204896Y0103757D01*
X0204808Y0103803D01*
X0204721Y0103852D01*
X0204637Y0103904D01*
X0204555Y0103960D01*
X0204475Y0104019D01*
X0204397Y0104081D01*
X0204322Y0104147D01*
X0204250Y0104215D01*
X0204180Y0104286D01*
X0204114Y0104359D01*
X0204050Y0104436D01*
X0203989Y0104514D01*
X0203932Y0104596D01*
X0203878Y0104679D01*
X0203827Y0104764D01*
X0203779Y0104852D01*
X0203735Y0104941D01*
X0203695Y0105032D01*
X0203658Y0105124D01*
X0203625Y0105218D01*
X0203596Y0105313D01*
X0203571Y0105409D01*
X0203549Y0105506D01*
X0203532Y0105604D01*
X0203518Y0105702D01*
X0203508Y0105801D01*
X0203502Y0105901D01*
X0203500Y0106000D01*
D13*
X0212435Y0023004D02*
X0213969Y0023004D01*
X0213202Y0023004D02*
X0213202Y0019167D01*
X0212435Y0018400D01*
X0211667Y0018400D01*
X0210900Y0019167D01*
X0215504Y0018400D02*
X0218573Y0018400D01*
X0217039Y0018400D02*
X0217039Y0023004D01*
X0215504Y0021469D01*
D14*
X0216000Y0031000D03*
X0226000Y0031000D03*
M02*
