G75*
%MOIN*%
%OFA0B0*%
%FSLAX25Y25*%
%IPPOS*%
%LPD*%
%AMOC8*
5,1,8,0,0,1.08239X$1,22.5*
%
%ADD10C,0.07600*%
%ADD11C,0.06400*%
%ADD12C,0.06600*%
%ADD13C,0.01000*%
%ADD14R,0.06600X0.06600*%
D10*
X0066000Y0036000D03*
X0066000Y0046000D03*
X0066000Y0056000D03*
X0066000Y0066000D03*
X0066000Y0076000D03*
X0066000Y0086000D03*
X0066000Y0096000D03*
X0066000Y0106000D03*
X0066000Y0116000D03*
X0066000Y0126000D03*
X0066000Y0136000D03*
X0066000Y0146000D03*
X0066000Y0156000D03*
X0066000Y0166000D03*
X0066000Y0176000D03*
X0156000Y0176000D03*
X0156000Y0166000D03*
X0156000Y0156000D03*
X0156000Y0146000D03*
X0156000Y0136000D03*
X0156000Y0126000D03*
X0156000Y0116000D03*
X0156000Y0106000D03*
X0156000Y0096000D03*
X0156000Y0086000D03*
X0156000Y0076000D03*
X0156000Y0066000D03*
X0156000Y0056000D03*
X0156000Y0046000D03*
X0156000Y0036000D03*
D11*
X0216000Y0034200D02*
X0216000Y0027800D01*
X0226000Y0027800D02*
X0226000Y0034200D01*
D12*
X0196000Y0166000D03*
X0196000Y0176000D03*
X0196000Y0196000D03*
X0016000Y0186000D03*
X0016000Y0166000D03*
X0016000Y0086000D03*
X0016000Y0076000D03*
X0036000Y0026000D03*
D13*
X0036000Y0046000D01*
X0066000Y0046000D01*
X0036000Y0046000D02*
X0036000Y0066000D01*
X0016000Y0086000D01*
X0016000Y0066000D02*
X0016000Y0036000D01*
X0026000Y0026000D01*
X0016000Y0026000D02*
X0033500Y0008500D01*
X0216000Y0008500D01*
X0216000Y0031000D01*
X0156000Y0156000D02*
X0163500Y0163500D01*
X0163500Y0176000D01*
X0196000Y0176000D01*
X0196000Y0186000D02*
X0163500Y0218500D01*
X0021000Y0218500D01*
X0021000Y0181000D01*
X0016000Y0176000D01*
D14*
X0016000Y0026000D03*
X0026000Y0026000D03*
X0016000Y0066000D03*
X0016000Y0176000D03*
X0196000Y0186000D03*
M02*
