G75*
%MOIN*%
%OFA0B0*%
%FSLAX25Y25*%
%IPPOS*%
%LPD*%
%AMOC8*
5,1,8,0,0,1.08239X$1,22.5*
%
%ADD10R,0.08661X0.02362*%
%ADD11C,0.07600*%
%ADD12C,0.06400*%
%ADD13C,0.06600*%
%ADD14C,0.01000*%
%ADD15R,0.06600X0.06600*%
D10*
X0196000Y0066000D03*
X0196000Y0071000D03*
X0196000Y0076000D03*
X0196000Y0081000D03*
X0196000Y0086000D03*
X0196000Y0091000D03*
X0196000Y0096000D03*
X0196000Y0101000D03*
X0196000Y0106000D03*
X0231472Y0106000D03*
X0231472Y0101000D03*
X0231472Y0096000D03*
X0231472Y0091000D03*
X0231472Y0086000D03*
X0231472Y0081000D03*
X0231472Y0076000D03*
X0231472Y0071000D03*
X0231472Y0066000D03*
D11*
X0156000Y0066000D03*
X0156000Y0076000D03*
X0156000Y0086000D03*
X0156000Y0096000D03*
X0156000Y0106000D03*
X0156000Y0116000D03*
X0156000Y0126000D03*
X0156000Y0136000D03*
X0156000Y0146000D03*
X0156000Y0156000D03*
X0156000Y0166000D03*
X0156000Y0176000D03*
X0066000Y0176000D03*
X0066000Y0166000D03*
X0066000Y0156000D03*
X0066000Y0146000D03*
X0066000Y0136000D03*
X0066000Y0126000D03*
X0066000Y0116000D03*
X0066000Y0106000D03*
X0066000Y0096000D03*
X0066000Y0086000D03*
X0066000Y0076000D03*
X0066000Y0066000D03*
X0066000Y0056000D03*
X0066000Y0046000D03*
X0066000Y0036000D03*
X0156000Y0036000D03*
X0156000Y0046000D03*
X0156000Y0056000D03*
D12*
X0216000Y0034200D02*
X0216000Y0027800D01*
X0226000Y0027800D02*
X0226000Y0034200D01*
D13*
X0196000Y0166000D03*
X0196000Y0176000D03*
X0196000Y0196000D03*
X0016000Y0186000D03*
X0016000Y0166000D03*
X0016000Y0086000D03*
X0016000Y0076000D03*
X0036000Y0026000D03*
D14*
X0026000Y0026000D02*
X0046000Y0006000D01*
X0163500Y0006000D01*
X0163500Y0041000D01*
X0191000Y0068500D01*
X0228500Y0068500D01*
X0231000Y0066000D01*
X0231472Y0066000D01*
X0238500Y0063500D02*
X0238500Y0093500D01*
X0226000Y0093500D01*
X0201000Y0118500D01*
X0201000Y0196000D01*
X0196000Y0196000D01*
X0186000Y0206000D01*
X0028500Y0206000D01*
X0011000Y0188500D01*
X0011000Y0166000D01*
X0016000Y0166000D01*
X0016000Y0086000D01*
X0016000Y0076000D02*
X0058500Y0033500D01*
X0058500Y0008500D01*
X0076000Y0008500D01*
X0148500Y0081000D01*
X0148500Y0106000D01*
X0156000Y0106000D01*
X0158500Y0098500D02*
X0156000Y0096000D01*
X0158500Y0098500D02*
X0193500Y0098500D01*
X0196000Y0101000D01*
X0196000Y0106000D01*
X0231000Y0106000D02*
X0231000Y0101000D01*
X0231472Y0101000D01*
X0233500Y0101000D01*
X0236000Y0098500D01*
X0238500Y0098500D01*
X0241000Y0096000D01*
X0241000Y0031000D01*
X0226000Y0031000D01*
X0238500Y0063500D02*
X0198500Y0063500D01*
X0196000Y0066000D01*
X0231000Y0106000D02*
X0231472Y0106000D01*
X0196000Y0166000D02*
X0156000Y0166000D01*
X0156000Y0146000D02*
X0098500Y0203500D01*
X0033500Y0203500D01*
X0016000Y0186000D01*
X0016000Y0176000D02*
X0058500Y0133500D01*
X0058500Y0038500D01*
X0063500Y0038500D01*
X0066000Y0036000D01*
D15*
X0016000Y0026000D03*
X0026000Y0026000D03*
X0016000Y0066000D03*
X0016000Y0176000D03*
X0196000Y0186000D03*
M02*
