%
M48
M72
T01C0.0315
T02C0.0400
T03C0.1260
%
T01
X1600Y2600
X2600Y2600
X3600Y2600
X6600Y3600
X6600Y4600
X6600Y5600
X6600Y6600
X6600Y7600
X6600Y8600
X6600Y9600
X6600Y10600
X6600Y11600
X6600Y12600
X6600Y13600
X6600Y14600
X6600Y15600
X6600Y16600
X6600Y17600
X1600Y17600
X1600Y16600
X1600Y18600
X1600Y8600
X1600Y7600
X1600Y6600
X15600Y6600
X15600Y7600
X15600Y8600
X15600Y9600
X15600Y10600
X15600Y11600
X15600Y12600
X15600Y13600
X15600Y14600
X15600Y15600
X15600Y16600
X15600Y17600
X19600Y17600
X19600Y16600
X19600Y18600
X19600Y19600
X15600Y5600
X15600Y4600
X15600Y3600
T02
X21600Y3100
X22600Y3100
T03
X15100Y2100
X7100Y2100
X7100Y19100
X15100Y19100
M30
